<svg width="22" height="22" viewBox="0 0 22 22" fill="none" xmlns="http://www.w3.org/2000/svg">
<path d="M11.6508 12.2834C11.5656 12.3693 11.4642 12.4375 11.3525 12.484C11.2408 12.5306 11.121 12.5545 11 12.5545C10.879 12.5545 10.7592 12.5306 10.6475 12.484C10.5358 12.4375 10.4344 12.3693 10.3492 12.2834L6.15084 8.07588C6.06562 7.98996 5.96424 7.92177 5.85253 7.87523C5.74083 7.82869 5.62102 7.80473 5.50001 7.80473C5.37899 7.80473 5.25918 7.82869 5.14748 7.87523C5.03577 7.92177 4.93439 7.98996 4.84917 8.07588C4.67844 8.24763 4.58261 8.47996 4.58261 8.72213C4.58261 8.9643 4.67844 9.19663 4.84917 9.36838L9.05668 13.5759C9.5723 14.0909 10.2713 14.3801 11 14.3801C11.7288 14.3801 12.4277 14.0909 12.9433 13.5759L17.1509 9.36838C17.3202 9.19764 17.4157 8.96719 17.4167 8.72671C17.4174 8.60607 17.3943 8.48648 17.3486 8.3748C17.303 8.26311 17.2358 8.16153 17.1509 8.07588C17.0656 7.98996 16.9643 7.92177 16.8525 7.87523C16.7408 7.82869 16.621 7.80473 16.5 7.80473C16.379 7.80473 16.2592 7.82869 16.1475 7.87523C16.0358 7.92177 15.9344 7.98996 15.8492 8.07588L11.6508 12.2834Z" fill="#FD9222"/>
</svg>
